<svg xmlns="http://www.w3.org/2000/svg" version="1.1" xmlns:xlink="http://www.w3.org/1999/xlink" xmlns:svgjs="http://svgjs.com/svgjs" width="1440" height="560" preserveAspectRatio="none" viewBox="0 0 1440 560"><g mask="url(&quot;#SvgjsMask1008&quot;)" fill="none"><path d="M-76.86 509.19L-76.86 509.19" stroke="rgba(122, 16, 143, 1)" stroke-width="1.5"></path><path d="M-76.86 509.19L65.66 491.73" stroke="rgba(122, 16, 143, 1)" stroke-width="1.5"></path><path d="M-76.86 509.19L-87.65 676.73" stroke="rgba(122, 16, 143, 1)" stroke-width="1.5"></path><path d="M-76.86 509.19L46.59 663.81" stroke="rgba(122, 16, 143, 1)" stroke-width="1.5"></path><path d="M-87.65 676.73L-87.65 676.73" stroke="rgba(122, 16, 143, 1)" stroke-width="1.5"></path><path d="M-87.65 676.73L46.59 663.81" stroke="rgba(122, 16, 143, 1)" stroke-width="1.5"></path><path d="M81.14 352.93L81.14 352.93" stroke="rgba(122, 16, 143, 1)" stroke-width="1.5"></path><path d="M81.14 352.93L207.06 361.89" stroke="rgba(122, 16, 143, 1)" stroke-width="1.5"></path><path d="M81.14 352.93L65.66 491.73" stroke="rgba(122, 16, 143, 1)" stroke-width="1.5"></path><path d="M65.66 491.73L65.66 491.73" stroke="rgba(122, 16, 143, 1)" stroke-width="1.5"></path><path d="M65.66 491.73L212.33 542.98" stroke="rgba(122, 16, 143, 1)" stroke-width="1.5"></path><path d="M65.66 491.73L46.59 663.81" stroke="rgba(122, 16, 143, 1)" stroke-width="1.5"></path><path d="M65.66 491.73L207.06 361.89" stroke="rgba(122, 16, 143, 1)" stroke-width="1.5"></path><path d="M65.66 491.73L-87.65 676.73" stroke="rgba(122, 16, 143, 1)" stroke-width="1.5"></path><path d="M46.59 663.81L46.59 663.81" stroke="rgba(122, 16, 143, 1)" stroke-width="1.5"></path><path d="M207.06 361.89L207.06 361.89" stroke="rgba(122, 16, 143, 1)" stroke-width="1.5"></path><path d="M207.06 361.89L354.49 408.73" stroke="rgba(122, 16, 143, 1)" stroke-width="1.5"></path><path d="M207.06 361.89L212.33 542.98" stroke="rgba(122, 16, 143, 1)" stroke-width="1.5"></path><path d="M212.33 542.98L212.33 542.98" stroke="rgba(122, 16, 143, 1)" stroke-width="1.5"></path><path d="M212.33 542.98L249.95 651.07" stroke="rgba(122, 16, 143, 1)" stroke-width="1.5"></path><path d="M212.33 542.98L375.77 550.68" stroke="rgba(122, 16, 143, 1)" stroke-width="1.5"></path><path d="M249.95 651.07L249.95 651.07" stroke="rgba(122, 16, 143, 1)" stroke-width="1.5"></path><path d="M249.95 651.07L375.77 550.68" stroke="rgba(122, 16, 143, 1)" stroke-width="1.5"></path><path d="M249.95 651.07L406.15 694.73" stroke="rgba(122, 16, 143, 1)" stroke-width="1.5"></path><path d="M249.95 651.07L46.59 663.81" stroke="rgba(122, 16, 143, 1)" stroke-width="1.5"></path><path d="M249.95 651.07L65.66 491.73" stroke="rgba(122, 16, 143, 1)" stroke-width="1.5"></path><path d="M249.95 651.07L354.49 408.73" stroke="rgba(122, 16, 143, 1)" stroke-width="1.5"></path><path d="M354.49 408.73L354.49 408.73" stroke="rgba(122, 16, 143, 1)" stroke-width="1.5"></path><path d="M354.49 408.73L375.77 550.68" stroke="rgba(122, 16, 143, 1)" stroke-width="1.5"></path><path d="M354.49 408.73L491.83 544.73" stroke="rgba(122, 16, 143, 1)" stroke-width="1.5"></path><path d="M354.49 408.73L212.33 542.98" stroke="rgba(122, 16, 143, 1)" stroke-width="1.5"></path><path d="M354.49 408.73L554.23 400.58" stroke="rgba(122, 16, 143, 1)" stroke-width="1.5"></path><path d="M375.77 550.68L375.77 550.68" stroke="rgba(122, 16, 143, 1)" stroke-width="1.5"></path><path d="M375.77 550.68L491.83 544.73" stroke="rgba(122, 16, 143, 1)" stroke-width="1.5"></path><path d="M375.77 550.68L406.15 694.73" stroke="rgba(122, 16, 143, 1)" stroke-width="1.5"></path><path d="M406.15 694.73L406.15 694.73" stroke="rgba(122, 16, 143, 1)" stroke-width="1.5"></path><path d="M406.15 694.73L557.5 646.04" stroke="rgba(122, 16, 143, 1)" stroke-width="1.5"></path><path d="M554.23 400.58L554.23 400.58" stroke="rgba(122, 16, 143, 1)" stroke-width="1.5"></path><path d="M554.23 400.58L695.01 388.1" stroke="rgba(122, 16, 143, 1)" stroke-width="1.5"></path><path d="M554.23 400.58L491.83 544.73" stroke="rgba(122, 16, 143, 1)" stroke-width="1.5"></path><path d="M554.23 400.58L695.14 225.87" stroke="rgba(122, 16, 143, 1)" stroke-width="1.5"></path><path d="M554.23 400.58L375.77 550.68" stroke="rgba(122, 16, 143, 1)" stroke-width="1.5"></path><path d="M491.83 544.73L491.83 544.73" stroke="rgba(122, 16, 143, 1)" stroke-width="1.5"></path><path d="M491.83 544.73L557.5 646.04" stroke="rgba(122, 16, 143, 1)" stroke-width="1.5"></path><path d="M491.83 544.73L406.15 694.73" stroke="rgba(122, 16, 143, 1)" stroke-width="1.5"></path><path d="M557.5 646.04L557.5 646.04" stroke="rgba(122, 16, 143, 1)" stroke-width="1.5"></path><path d="M557.5 646.04L657.4 675.8" stroke="rgba(122, 16, 143, 1)" stroke-width="1.5"></path><path d="M695.14 225.87L695.14 225.87" stroke="rgba(122, 16, 143, 1)" stroke-width="1.5"></path><path d="M695.14 225.87L799.12 213.05" stroke="rgba(122, 16, 143, 1)" stroke-width="1.5"></path><path d="M695.14 225.87L695.01 388.1" stroke="rgba(122, 16, 143, 1)" stroke-width="1.5"></path><path d="M695.01 388.1L695.01 388.1" stroke="rgba(122, 16, 143, 1)" stroke-width="1.5"></path><path d="M695.01 388.1L805.9 396.27" stroke="rgba(122, 16, 143, 1)" stroke-width="1.5"></path><path d="M695.01 388.1L799.12 213.05" stroke="rgba(122, 16, 143, 1)" stroke-width="1.5"></path><path d="M695.01 388.1L830.45 558.75" stroke="rgba(122, 16, 143, 1)" stroke-width="1.5"></path><path d="M657.4 675.8L657.4 675.8" stroke="rgba(122, 16, 143, 1)" stroke-width="1.5"></path><path d="M657.4 675.8L813.19 706.22" stroke="rgba(122, 16, 143, 1)" stroke-width="1.5"></path><path d="M657.4 675.8L830.45 558.75" stroke="rgba(122, 16, 143, 1)" stroke-width="1.5"></path><path d="M799.12 213.05L799.12 213.05" stroke="rgba(122, 16, 143, 1)" stroke-width="1.5"></path><path d="M805.9 396.27L805.9 396.27" stroke="rgba(122, 16, 143, 1)" stroke-width="1.5"></path><path d="M805.9 396.27L830.45 558.75" stroke="rgba(122, 16, 143, 1)" stroke-width="1.5"></path><path d="M830.45 558.75L830.45 558.75" stroke="rgba(122, 16, 143, 1)" stroke-width="1.5"></path><path d="M830.45 558.75L813.19 706.22" stroke="rgba(122, 16, 143, 1)" stroke-width="1.5"></path><path d="M830.45 558.75L996.39 500.8" stroke="rgba(122, 16, 143, 1)" stroke-width="1.5"></path><path d="M830.45 558.75L1011.18 672.63" stroke="rgba(122, 16, 143, 1)" stroke-width="1.5"></path><path d="M813.19 706.22L813.19 706.22" stroke="rgba(122, 16, 143, 1)" stroke-width="1.5"></path><path d="M968.91 -72.91L968.91 -72.91" stroke="rgba(122, 16, 143, 1)" stroke-width="1.5"></path><path d="M968.91 -72.91L963.76 87.95" stroke="rgba(122, 16, 143, 1)" stroke-width="1.5"></path><path d="M968.91 -72.91L1138.06 -87.83" stroke="rgba(122, 16, 143, 1)" stroke-width="1.5"></path><path d="M968.91 -72.91L1115.12 85.53" stroke="rgba(122, 16, 143, 1)" stroke-width="1.5"></path><path d="M963.76 87.95L963.76 87.95" stroke="rgba(122, 16, 143, 1)" stroke-width="1.5"></path><path d="M963.76 87.95L1115.12 85.53" stroke="rgba(122, 16, 143, 1)" stroke-width="1.5"></path><path d="M963.76 87.95L997.59 248.35" stroke="rgba(122, 16, 143, 1)" stroke-width="1.5"></path><path d="M963.76 87.95L799.12 213.05" stroke="rgba(122, 16, 143, 1)" stroke-width="1.5"></path><path d="M997.59 248.35L997.59 248.35" stroke="rgba(122, 16, 143, 1)" stroke-width="1.5"></path><path d="M997.59 248.35L1010.1 376.29" stroke="rgba(122, 16, 143, 1)" stroke-width="1.5"></path><path d="M997.59 248.35L1142.55 241.06" stroke="rgba(122, 16, 143, 1)" stroke-width="1.5"></path><path d="M1010.1 376.29L1010.1 376.29" stroke="rgba(122, 16, 143, 1)" stroke-width="1.5"></path><path d="M1010.1 376.29L996.39 500.8" stroke="rgba(122, 16, 143, 1)" stroke-width="1.5"></path><path d="M1010.1 376.29L1156.92 348.1" stroke="rgba(122, 16, 143, 1)" stroke-width="1.5"></path><path d="M1010.1 376.29L1119.18 511.99" stroke="rgba(122, 16, 143, 1)" stroke-width="1.5"></path><path d="M1010.1 376.29L1142.55 241.06" stroke="rgba(122, 16, 143, 1)" stroke-width="1.5"></path><path d="M996.39 500.8L996.39 500.8" stroke="rgba(122, 16, 143, 1)" stroke-width="1.5"></path><path d="M996.39 500.8L1119.18 511.99" stroke="rgba(122, 16, 143, 1)" stroke-width="1.5"></path><path d="M996.39 500.8L1011.18 672.63" stroke="rgba(122, 16, 143, 1)" stroke-width="1.5"></path><path d="M996.39 500.8L805.9 396.27" stroke="rgba(122, 16, 143, 1)" stroke-width="1.5"></path><path d="M996.39 500.8L1156.92 348.1" stroke="rgba(122, 16, 143, 1)" stroke-width="1.5"></path><path d="M1011.18 672.63L1011.18 672.63" stroke="rgba(122, 16, 143, 1)" stroke-width="1.5"></path><path d="M1011.18 672.63L1154.97 685.25" stroke="rgba(122, 16, 143, 1)" stroke-width="1.5"></path><path d="M1011.18 672.63L1119.18 511.99" stroke="rgba(122, 16, 143, 1)" stroke-width="1.5"></path><path d="M1011.18 672.63L813.19 706.22" stroke="rgba(122, 16, 143, 1)" stroke-width="1.5"></path><path d="M1011.18 672.63L1240.73 683.35" stroke="rgba(122, 16, 143, 1)" stroke-width="1.5"></path><path d="M1138.06 -87.83L1138.06 -87.83" stroke="rgba(122, 16, 143, 1)" stroke-width="1.5"></path><path d="M1138.06 -87.83L1269.32 -79.92" stroke="rgba(122, 16, 143, 1)" stroke-width="1.5"></path><path d="M1115.12 85.53L1115.12 85.53" stroke="rgba(122, 16, 143, 1)" stroke-width="1.5"></path><path d="M1115.12 85.53L1265.59 93.19" stroke="rgba(122, 16, 143, 1)" stroke-width="1.5"></path><path d="M1115.12 85.53L1142.55 241.06" stroke="rgba(122, 16, 143, 1)" stroke-width="1.5"></path><path d="M1142.55 241.06L1142.55 241.06" stroke="rgba(122, 16, 143, 1)" stroke-width="1.5"></path><path d="M1142.55 241.06L1156.92 348.1" stroke="rgba(122, 16, 143, 1)" stroke-width="1.5"></path><path d="M1142.55 241.06L1309.64 240.25" stroke="rgba(122, 16, 143, 1)" stroke-width="1.5"></path><path d="M1142.55 241.06L1280.95 348.68" stroke="rgba(122, 16, 143, 1)" stroke-width="1.5"></path><path d="M1156.92 348.1L1156.92 348.1" stroke="rgba(122, 16, 143, 1)" stroke-width="1.5"></path><path d="M1156.92 348.1L1280.95 348.68" stroke="rgba(122, 16, 143, 1)" stroke-width="1.5"></path><path d="M1156.92 348.1L1119.18 511.99" stroke="rgba(122, 16, 143, 1)" stroke-width="1.5"></path><path d="M1156.92 348.1L1309.64 240.25" stroke="rgba(122, 16, 143, 1)" stroke-width="1.5"></path><path d="M1156.92 348.1L997.59 248.35" stroke="rgba(122, 16, 143, 1)" stroke-width="1.5"></path><path d="M1119.18 511.99L1119.18 511.99" stroke="rgba(122, 16, 143, 1)" stroke-width="1.5"></path><path d="M1119.18 511.99L1259.7 554.99" stroke="rgba(122, 16, 143, 1)" stroke-width="1.5"></path><path d="M1154.97 685.25L1154.97 685.25" stroke="rgba(122, 16, 143, 1)" stroke-width="1.5"></path><path d="M1154.97 685.25L1240.73 683.35" stroke="rgba(122, 16, 143, 1)" stroke-width="1.5"></path><path d="M1154.97 685.25L1259.7 554.99" stroke="rgba(122, 16, 143, 1)" stroke-width="1.5"></path><path d="M1154.97 685.25L1119.18 511.99" stroke="rgba(122, 16, 143, 1)" stroke-width="1.5"></path><path d="M1269.32 -79.92L1269.32 -79.92" stroke="rgba(122, 16, 143, 1)" stroke-width="1.5"></path><path d="M1269.32 -79.92L1394.3 -52.97" stroke="rgba(122, 16, 143, 1)" stroke-width="1.5"></path><path d="M1269.32 -79.92L1265.59 93.19" stroke="rgba(122, 16, 143, 1)" stroke-width="1.5"></path><path d="M1269.32 -79.92L1115.12 85.53" stroke="rgba(122, 16, 143, 1)" stroke-width="1.5"></path><path d="M1269.32 -79.92L1452.22 67.49" stroke="rgba(122, 16, 143, 1)" stroke-width="1.5"></path><path d="M1269.32 -79.92L968.91 -72.91" stroke="rgba(122, 16, 143, 1)" stroke-width="1.5"></path><path d="M1265.59 93.19L1265.59 93.19" stroke="rgba(122, 16, 143, 1)" stroke-width="1.5"></path><path d="M1265.59 93.19L1309.64 240.25" stroke="rgba(122, 16, 143, 1)" stroke-width="1.5"></path><path d="M1265.59 93.19L1452.22 67.49" stroke="rgba(122, 16, 143, 1)" stroke-width="1.5"></path><path d="M1265.59 93.19L1142.55 241.06" stroke="rgba(122, 16, 143, 1)" stroke-width="1.5"></path><path d="M1265.59 93.19L1394.3 -52.97" stroke="rgba(122, 16, 143, 1)" stroke-width="1.5"></path><path d="M1309.64 240.25L1309.64 240.25" stroke="rgba(122, 16, 143, 1)" stroke-width="1.5"></path><path d="M1309.64 240.25L1280.95 348.68" stroke="rgba(122, 16, 143, 1)" stroke-width="1.5"></path><path d="M1309.64 240.25L1450.7 190.46" stroke="rgba(122, 16, 143, 1)" stroke-width="1.5"></path><path d="M1280.95 348.68L1280.95 348.68" stroke="rgba(122, 16, 143, 1)" stroke-width="1.5"></path><path d="M1280.95 348.68L1445.41 385.93" stroke="rgba(122, 16, 143, 1)" stroke-width="1.5"></path><path d="M1280.95 348.68L1259.7 554.99" stroke="rgba(122, 16, 143, 1)" stroke-width="1.5"></path><path d="M1280.95 348.68L1119.18 511.99" stroke="rgba(122, 16, 143, 1)" stroke-width="1.5"></path><path d="M1259.7 554.99L1259.7 554.99" stroke="rgba(122, 16, 143, 1)" stroke-width="1.5"></path><path d="M1259.7 554.99L1240.73 683.35" stroke="rgba(122, 16, 143, 1)" stroke-width="1.5"></path><path d="M1259.7 554.99L1427.06 668.82" stroke="rgba(122, 16, 143, 1)" stroke-width="1.5"></path><path d="M1259.7 554.99L1460.82 524.54" stroke="rgba(122, 16, 143, 1)" stroke-width="1.5"></path><path d="M1240.73 683.35L1240.73 683.35" stroke="rgba(122, 16, 143, 1)" stroke-width="1.5"></path><path d="M1240.73 683.35L1427.06 668.82" stroke="rgba(122, 16, 143, 1)" stroke-width="1.5"></path><path d="M1394.3 -52.97L1394.3 -52.97" stroke="rgba(122, 16, 143, 1)" stroke-width="1.5"></path><path d="M1394.3 -52.97L1452.22 67.49" stroke="rgba(122, 16, 143, 1)" stroke-width="1.5"></path><path d="M1394.3 -52.97L1583.21 -56.27" stroke="rgba(122, 16, 143, 1)" stroke-width="1.5"></path><path d="M1394.3 -52.97L1590.35 93.31" stroke="rgba(122, 16, 143, 1)" stroke-width="1.5"></path><path d="M1394.3 -52.97L1450.7 190.46" stroke="rgba(122, 16, 143, 1)" stroke-width="1.5"></path><path d="M1452.22 67.49L1452.22 67.49" stroke="rgba(122, 16, 143, 1)" stroke-width="1.5"></path><path d="M1452.22 67.49L1450.7 190.46" stroke="rgba(122, 16, 143, 1)" stroke-width="1.5"></path><path d="M1452.22 67.49L1590.35 93.31" stroke="rgba(122, 16, 143, 1)" stroke-width="1.5"></path><path d="M1450.7 190.46L1450.7 190.46" stroke="rgba(122, 16, 143, 1)" stroke-width="1.5"></path><path d="M1445.41 385.93L1445.41 385.93" stroke="rgba(122, 16, 143, 1)" stroke-width="1.5"></path><path d="M1445.41 385.93L1460.82 524.54" stroke="rgba(122, 16, 143, 1)" stroke-width="1.5"></path><path d="M1445.41 385.93L1583.3 362.45" stroke="rgba(122, 16, 143, 1)" stroke-width="1.5"></path><path d="M1460.82 524.54L1460.82 524.54" stroke="rgba(122, 16, 143, 1)" stroke-width="1.5"></path><path d="M1460.82 524.54L1547.36 533.99" stroke="rgba(122, 16, 143, 1)" stroke-width="1.5"></path><path d="M1427.06 668.82L1427.06 668.82" stroke="rgba(122, 16, 143, 1)" stroke-width="1.5"></path><path d="M1427.06 668.82L1542.27 701.25" stroke="rgba(122, 16, 143, 1)" stroke-width="1.5"></path><path d="M1427.06 668.82L1460.82 524.54" stroke="rgba(122, 16, 143, 1)" stroke-width="1.5"></path><path d="M1427.06 668.82L1547.36 533.99" stroke="rgba(122, 16, 143, 1)" stroke-width="1.5"></path><path d="M1583.21 -56.27L1583.21 -56.27" stroke="rgba(122, 16, 143, 1)" stroke-width="1.5"></path><path d="M1583.21 -56.27L1590.35 93.31" stroke="rgba(122, 16, 143, 1)" stroke-width="1.5"></path><path d="M1583.21 -56.27L1452.22 67.49" stroke="rgba(122, 16, 143, 1)" stroke-width="1.5"></path><path d="M1583.21 -56.27L1450.7 190.46" stroke="rgba(122, 16, 143, 1)" stroke-width="1.5"></path><path d="M1590.35 93.31L1590.35 93.31" stroke="rgba(122, 16, 143, 1)" stroke-width="1.5"></path><path d="M1590.35 93.31L1596.34 230.51" stroke="rgba(122, 16, 143, 1)" stroke-width="1.5"></path><path d="M1596.34 230.51L1596.34 230.51" stroke="rgba(122, 16, 143, 1)" stroke-width="1.5"></path><path d="M1596.34 230.51L1583.3 362.45" stroke="rgba(122, 16, 143, 1)" stroke-width="1.5"></path><path d="M1596.34 230.51L1450.7 190.46" stroke="rgba(122, 16, 143, 1)" stroke-width="1.5"></path><path d="M1596.34 230.51L1445.41 385.93" stroke="rgba(122, 16, 143, 1)" stroke-width="1.5"></path><path d="M1596.34 230.51L1452.22 67.49" stroke="rgba(122, 16, 143, 1)" stroke-width="1.5"></path><path d="M1583.3 362.45L1583.3 362.45" stroke="rgba(122, 16, 143, 1)" stroke-width="1.5"></path><path d="M1583.3 362.45L1547.36 533.99" stroke="rgba(122, 16, 143, 1)" stroke-width="1.5"></path><path d="M1583.3 362.45L1460.82 524.54" stroke="rgba(122, 16, 143, 1)" stroke-width="1.5"></path><path d="M1547.36 533.99L1547.36 533.99" stroke="rgba(122, 16, 143, 1)" stroke-width="1.5"></path><path d="M1547.36 533.99L1542.27 701.25" stroke="rgba(122, 16, 143, 1)" stroke-width="1.5"></path><path d="M1547.36 533.99L1445.41 385.93" stroke="rgba(122, 16, 143, 1)" stroke-width="1.5"></path><path d="M1547.36 533.99L1259.7 554.99" stroke="rgba(122, 16, 143, 1)" stroke-width="1.5"></path><path d="M1542.27 701.25L1542.27 701.25" stroke="rgba(122, 16, 143, 1)" stroke-width="1.5"></path><path d="M1542.27 701.25L1460.82 524.54" stroke="rgba(122, 16, 143, 1)" stroke-width="1.5"></path><path d="M1542.27 701.25L1240.73 683.35" stroke="rgba(122, 16, 143, 1)" stroke-width="1.5"></path><path d="M1542.27 701.25L1259.7 554.99" stroke="rgba(122, 16, 143, 1)" stroke-width="1.5"></path><path d="M1542.27 701.25L1445.41 385.93" stroke="rgba(122, 16, 143, 1)" stroke-width="1.5"></path><circle r="5" cx="-76.86" cy="509.19" fill="rgba(122, 16, 143, 1)"></circle><circle r="5" cx="-87.65" cy="676.73" fill="rgba(122, 16, 143, 1)"></circle><circle r="5" cx="81.14" cy="352.93" fill="rgba(122, 16, 143, 1)"></circle><circle r="5" cx="65.66" cy="491.73" fill="rgba(122, 16, 143, 1)"></circle><circle r="5" cx="46.59" cy="663.81" fill="rgba(122, 16, 143, 1)"></circle><circle r="5" cx="207.06" cy="361.89" fill="rgba(122, 16, 143, 1)"></circle><circle r="5" cx="212.33" cy="542.98" fill="rgba(122, 16, 143, 1)"></circle><circle r="5" cx="249.95" cy="651.07" fill="rgba(122, 16, 143, 1)"></circle><circle r="5" cx="354.49" cy="408.73" fill="rgba(122, 16, 143, 1)"></circle><circle r="5" cx="375.77" cy="550.68" fill="rgba(122, 16, 143, 1)"></circle><circle r="5" cx="406.15" cy="694.73" fill="rgba(122, 16, 143, 1)"></circle><circle r="5" cx="554.23" cy="400.58" fill="rgba(122, 16, 143, 1)"></circle><circle r="5" cx="491.83" cy="544.73" fill="rgba(122, 16, 143, 1)"></circle><circle r="5" cx="557.5" cy="646.04" fill="rgba(122, 16, 143, 1)"></circle><circle r="5" cx="695.14" cy="225.87" fill="rgba(122, 16, 143, 1)"></circle><circle r="5" cx="695.01" cy="388.1" fill="rgba(122, 16, 143, 1)"></circle><circle r="5" cx="657.4" cy="675.8" fill="rgba(122, 16, 143, 1)"></circle><circle r="5" cx="799.12" cy="213.05" fill="rgba(122, 16, 143, 1)"></circle><circle r="5" cx="805.9" cy="396.27" fill="rgba(122, 16, 143, 1)"></circle><circle r="5" cx="830.45" cy="558.75" fill="rgba(122, 16, 143, 1)"></circle><circle r="5" cx="813.19" cy="706.22" fill="rgba(122, 16, 143, 1)"></circle><circle r="5" cx="968.91" cy="-72.91" fill="rgba(122, 16, 143, 1)"></circle><circle r="5" cx="963.76" cy="87.95" fill="rgba(122, 16, 143, 1)"></circle><circle r="5" cx="997.59" cy="248.35" fill="rgba(122, 16, 143, 1)"></circle><circle r="5" cx="1010.1" cy="376.29" fill="rgba(122, 16, 143, 1)"></circle><circle r="5" cx="996.39" cy="500.8" fill="rgba(122, 16, 143, 1)"></circle><circle r="5" cx="1011.18" cy="672.63" fill="rgba(122, 16, 143, 1)"></circle><circle r="5" cx="1138.06" cy="-87.83" fill="rgba(122, 16, 143, 1)"></circle><circle r="5" cx="1115.12" cy="85.53" fill="rgba(122, 16, 143, 1)"></circle><circle r="5" cx="1142.55" cy="241.06" fill="rgba(122, 16, 143, 1)"></circle><circle r="5" cx="1156.92" cy="348.1" fill="rgba(122, 16, 143, 1)"></circle><circle r="5" cx="1119.18" cy="511.99" fill="rgba(122, 16, 143, 1)"></circle><circle r="5" cx="1154.97" cy="685.25" fill="rgba(122, 16, 143, 1)"></circle><circle r="5" cx="1269.32" cy="-79.92" fill="rgba(122, 16, 143, 1)"></circle><circle r="5" cx="1265.59" cy="93.19" fill="rgba(122, 16, 143, 1)"></circle><circle r="5" cx="1309.64" cy="240.25" fill="rgba(122, 16, 143, 1)"></circle><circle r="5" cx="1280.95" cy="348.68" fill="rgba(122, 16, 143, 1)"></circle><circle r="5" cx="1259.7" cy="554.99" fill="rgba(122, 16, 143, 1)"></circle><circle r="5" cx="1240.73" cy="683.35" fill="rgba(122, 16, 143, 1)"></circle><circle r="5" cx="1394.3" cy="-52.97" fill="rgba(122, 16, 143, 1)"></circle><circle r="5" cx="1452.22" cy="67.49" fill="rgba(122, 16, 143, 1)"></circle><circle r="5" cx="1450.7" cy="190.46" fill="rgba(122, 16, 143, 1)"></circle><circle r="5" cx="1445.41" cy="385.93" fill="rgba(122, 16, 143, 1)"></circle><circle r="5" cx="1460.82" cy="524.54" fill="rgba(122, 16, 143, 1)"></circle><circle r="5" cx="1427.06" cy="668.82" fill="rgba(122, 16, 143, 1)"></circle><circle r="5" cx="1583.21" cy="-56.27" fill="rgba(122, 16, 143, 1)"></circle><circle r="5" cx="1590.35" cy="93.31" fill="rgba(122, 16, 143, 1)"></circle><circle r="5" cx="1596.34" cy="230.51" fill="rgba(122, 16, 143, 1)"></circle><circle r="5" cx="1583.3" cy="362.45" fill="rgba(122, 16, 143, 1)"></circle><circle r="5" cx="1547.36" cy="533.99" fill="rgba(122, 16, 143, 1)"></circle><circle r="5" cx="1542.27" cy="701.25" fill="rgba(122, 16, 143, 1)"></circle><path d="M54.77 554.7L54.77 554.7" stroke="hsl(264.9, 68.7%, 45.6%)" stroke-width="1.5"></path><path d="M54.77 554.7L66.14 653.7" stroke="hsl(264.9, 68.7%, 45.6%)" stroke-width="1.5"></path><path d="M376.16 644.08L376.16 644.08" stroke="hsl(264.9, 68.7%, 45.6%)" stroke-width="1.5"></path><path d="M376.16 644.08L233.65 664.68" stroke="hsl(264.9, 68.7%, 45.6%)" stroke-width="1.5"></path><path d="M376.16 644.08L535.48 707.11" stroke="hsl(264.9, 68.7%, 45.6%)" stroke-width="1.5"></path><path d="M376.16 644.08L551.98 536.08" stroke="hsl(264.9, 68.7%, 45.6%)" stroke-width="1.5"></path><path d="M376.16 644.08L640.19 511.67" stroke="hsl(264.9, 68.7%, 45.6%)" stroke-width="1.5"></path><path d="M697.57 702.4L697.57 702.4" stroke="hsl(264.9, 68.7%, 45.6%)" stroke-width="1.5"></path><path d="M697.57 702.4L848.53 695.45" stroke="hsl(264.9, 68.7%, 45.6%)" stroke-width="1.5"></path><path d="M697.57 702.4L535.48 707.11" stroke="hsl(264.9, 68.7%, 45.6%)" stroke-width="1.5"></path><path d="M697.57 702.4L640.19 511.67" stroke="hsl(264.9, 68.7%, 45.6%)" stroke-width="1.5"></path><path d="M1276.09 -100.06L1276.09 -100.06" stroke="hsl(264.9, 68.7%, 45.6%)" stroke-width="1.5"></path><path d="M1276.09 -100.06L1299.28 44.96" stroke="hsl(264.9, 68.7%, 45.6%)" stroke-width="1.5"></path><path d="M1276.09 -100.06L1426.36 -87.41" stroke="hsl(264.9, 68.7%, 45.6%)" stroke-width="1.5"></path><path d="M1276.09 -100.06L1396.52 59.83" stroke="hsl(264.9, 68.7%, 45.6%)" stroke-width="1.5"></path><path d="M1276.09 -100.06L1248.96 215.17" stroke="hsl(264.9, 68.7%, 45.6%)" stroke-width="1.5"></path><path d="M1248.96 215.17L1248.96 215.17" stroke="hsl(264.9, 68.7%, 45.6%)" stroke-width="1.5"></path><path d="M1248.96 215.17L1158.36 216.69" stroke="hsl(264.9, 68.7%, 45.6%)" stroke-width="1.5"></path><path d="M1248.96 215.17L1389.82 211.37" stroke="hsl(264.9, 68.7%, 45.6%)" stroke-width="1.5"></path><path d="M1248.96 215.17L1140.68 342.33" stroke="hsl(264.9, 68.7%, 45.6%)" stroke-width="1.5"></path><path d="M1295.96 387.96L1295.96 387.96" stroke="hsl(264.9, 68.7%, 45.6%)" stroke-width="1.5"></path><path d="M1295.96 387.96L1280.41 527.58" stroke="hsl(264.9, 68.7%, 45.6%)" stroke-width="1.5"></path><path d="M1295.96 387.96L1453.71 376.4" stroke="hsl(264.9, 68.7%, 45.6%)" stroke-width="1.5"></path><path d="M-66.6 513.31L-66.6 513.31" stroke="hsl(264.9, 68.7%, 45.6%)" stroke-width="1.5"></path><path d="M-66.6 513.31L54.77 554.7" stroke="hsl(264.9, 68.7%, 45.6%)" stroke-width="1.5"></path><path d="M-66.6 513.31L-100.17 671.56" stroke="hsl(264.9, 68.7%, 45.6%)" stroke-width="1.5"></path><path d="M-100.17 671.56L-100.17 671.56" stroke="hsl(264.9, 68.7%, 45.6%)" stroke-width="1.5"></path><path d="M-100.17 671.56L66.14 653.7" stroke="hsl(264.9, 68.7%, 45.6%)" stroke-width="1.5"></path><path d="M-100.17 671.56L54.77 554.7" stroke="hsl(264.9, 68.7%, 45.6%)" stroke-width="1.5"></path><path d="M-100.17 671.56L233.65 664.68" stroke="hsl(264.9, 68.7%, 45.6%)" stroke-width="1.5"></path><path d="M66.14 653.7L66.14 653.7" stroke="hsl(264.9, 68.7%, 45.6%)" stroke-width="1.5"></path><path d="M66.14 653.7L233.65 664.68" stroke="hsl(264.9, 68.7%, 45.6%)" stroke-width="1.5"></path><path d="M66.14 653.7L-66.6 513.31" stroke="hsl(264.9, 68.7%, 45.6%)" stroke-width="1.5"></path><path d="M66.14 653.7L376.16 644.08" stroke="hsl(264.9, 68.7%, 45.6%)" stroke-width="1.5"></path><path d="M233.65 664.68L233.65 664.68" stroke="hsl(264.9, 68.7%, 45.6%)" stroke-width="1.5"></path><path d="M233.65 664.68L54.77 554.7" stroke="hsl(264.9, 68.7%, 45.6%)" stroke-width="1.5"></path><path d="M233.65 664.68L535.48 707.11" stroke="hsl(264.9, 68.7%, 45.6%)" stroke-width="1.5"></path><path d="M551.98 536.08L551.98 536.08" stroke="hsl(264.9, 68.7%, 45.6%)" stroke-width="1.5"></path><path d="M551.98 536.08L640.19 511.67" stroke="hsl(264.9, 68.7%, 45.6%)" stroke-width="1.5"></path><path d="M551.98 536.08L535.48 707.11" stroke="hsl(264.9, 68.7%, 45.6%)" stroke-width="1.5"></path><path d="M551.98 536.08L697.57 702.4" stroke="hsl(264.9, 68.7%, 45.6%)" stroke-width="1.5"></path><path d="M535.48 707.11L535.48 707.11" stroke="hsl(264.9, 68.7%, 45.6%)" stroke-width="1.5"></path><path d="M640.19 511.67L640.19 511.67" stroke="hsl(264.9, 68.7%, 45.6%)" stroke-width="1.5"></path><path d="M640.19 511.67L797.5 525.14" stroke="hsl(264.9, 68.7%, 45.6%)" stroke-width="1.5"></path><path d="M640.19 511.67L791.3 399.29" stroke="hsl(264.9, 68.7%, 45.6%)" stroke-width="1.5"></path><path d="M791.3 399.29L791.3 399.29" stroke="hsl(264.9, 68.7%, 45.6%)" stroke-width="1.5"></path><path d="M791.3 399.29L797.5 525.14" stroke="hsl(264.9, 68.7%, 45.6%)" stroke-width="1.5"></path><path d="M797.5 525.14L797.5 525.14" stroke="hsl(264.9, 68.7%, 45.6%)" stroke-width="1.5"></path><path d="M797.5 525.14L848.53 695.45" stroke="hsl(264.9, 68.7%, 45.6%)" stroke-width="1.5"></path><path d="M797.5 525.14L996.33 507.05" stroke="hsl(264.9, 68.7%, 45.6%)" stroke-width="1.5"></path><path d="M797.5 525.14L697.57 702.4" stroke="hsl(264.9, 68.7%, 45.6%)" stroke-width="1.5"></path><path d="M797.5 525.14L956.19 666.9" stroke="hsl(264.9, 68.7%, 45.6%)" stroke-width="1.5"></path><path d="M848.53 695.45L848.53 695.45" stroke="hsl(264.9, 68.7%, 45.6%)" stroke-width="1.5"></path><path d="M848.53 695.45L956.19 666.9" stroke="hsl(264.9, 68.7%, 45.6%)" stroke-width="1.5"></path><path d="M996.33 507.05L996.33 507.05" stroke="hsl(264.9, 68.7%, 45.6%)" stroke-width="1.5"></path><path d="M996.33 507.05L1148.96 510.21" stroke="hsl(264.9, 68.7%, 45.6%)" stroke-width="1.5"></path><path d="M996.33 507.05L956.19 666.9" stroke="hsl(264.9, 68.7%, 45.6%)" stroke-width="1.5"></path><path d="M996.33 507.05L1140.68 342.33" stroke="hsl(264.9, 68.7%, 45.6%)" stroke-width="1.5"></path><path d="M956.19 666.9L956.19 666.9" stroke="hsl(264.9, 68.7%, 45.6%)" stroke-width="1.5"></path><path d="M1158.36 216.69L1158.36 216.69" stroke="hsl(264.9, 68.7%, 45.6%)" stroke-width="1.5"></path><path d="M1158.36 216.69L1140.68 342.33" stroke="hsl(264.9, 68.7%, 45.6%)" stroke-width="1.5"></path><path d="M1158.36 216.69L1295.96 387.96" stroke="hsl(264.9, 68.7%, 45.6%)" stroke-width="1.5"></path><path d="M1158.36 216.69L1299.28 44.96" stroke="hsl(264.9, 68.7%, 45.6%)" stroke-width="1.5"></path><path d="M1158.36 216.69L1389.82 211.37" stroke="hsl(264.9, 68.7%, 45.6%)" stroke-width="1.5"></path><path d="M1140.68 342.33L1140.68 342.33" stroke="hsl(264.9, 68.7%, 45.6%)" stroke-width="1.5"></path><path d="M1140.68 342.33L1295.96 387.96" stroke="hsl(264.9, 68.7%, 45.6%)" stroke-width="1.5"></path><path d="M1140.68 342.33L1148.96 510.21" stroke="hsl(264.9, 68.7%, 45.6%)" stroke-width="1.5"></path><path d="M1148.96 510.21L1148.96 510.21" stroke="hsl(264.9, 68.7%, 45.6%)" stroke-width="1.5"></path><path d="M1148.96 510.21L1280.41 527.58" stroke="hsl(264.9, 68.7%, 45.6%)" stroke-width="1.5"></path><path d="M1299.28 44.96L1299.28 44.96" stroke="hsl(264.9, 68.7%, 45.6%)" stroke-width="1.5"></path><path d="M1299.28 44.96L1396.52 59.83" stroke="hsl(264.9, 68.7%, 45.6%)" stroke-width="1.5"></path><path d="M1280.41 527.58L1280.41 527.58" stroke="hsl(264.9, 68.7%, 45.6%)" stroke-width="1.5"></path><path d="M1280.41 527.58L1297.84 663.08" stroke="hsl(264.9, 68.7%, 45.6%)" stroke-width="1.5"></path><path d="M1297.84 663.08L1297.84 663.08" stroke="hsl(264.9, 68.7%, 45.6%)" stroke-width="1.5"></path><path d="M1297.84 663.08L1451.22 669.05" stroke="hsl(264.9, 68.7%, 45.6%)" stroke-width="1.5"></path><path d="M1297.84 663.08L1436.04 527.75" stroke="hsl(264.9, 68.7%, 45.6%)" stroke-width="1.5"></path><path d="M1426.36 -87.41L1426.36 -87.41" stroke="hsl(264.9, 68.7%, 45.6%)" stroke-width="1.5"></path><path d="M1426.36 -87.41L1396.52 59.83" stroke="hsl(264.9, 68.7%, 45.6%)" stroke-width="1.5"></path><path d="M1396.52 59.83L1396.52 59.83" stroke="hsl(264.9, 68.7%, 45.6%)" stroke-width="1.5"></path><path d="M1396.52 59.83L1389.82 211.37" stroke="hsl(264.9, 68.7%, 45.6%)" stroke-width="1.5"></path><path d="M1389.82 211.37L1389.82 211.37" stroke="hsl(264.9, 68.7%, 45.6%)" stroke-width="1.5"></path><path d="M1453.71 376.4L1453.71 376.4" stroke="hsl(264.9, 68.7%, 45.6%)" stroke-width="1.5"></path><path d="M1453.71 376.4L1558.95 365.89" stroke="hsl(264.9, 68.7%, 45.6%)" stroke-width="1.5"></path><path d="M1453.71 376.4L1436.04 527.75" stroke="hsl(264.9, 68.7%, 45.6%)" stroke-width="1.5"></path><path d="M1453.71 376.4L1389.82 211.37" stroke="hsl(264.9, 68.7%, 45.6%)" stroke-width="1.5"></path><path d="M1453.71 376.4L1545.15 536.73" stroke="hsl(264.9, 68.7%, 45.6%)" stroke-width="1.5"></path><path d="M1436.04 527.75L1436.04 527.75" stroke="hsl(264.9, 68.7%, 45.6%)" stroke-width="1.5"></path><path d="M1436.04 527.75L1545.15 536.73" stroke="hsl(264.9, 68.7%, 45.6%)" stroke-width="1.5"></path><path d="M1436.04 527.75L1451.22 669.05" stroke="hsl(264.9, 68.7%, 45.6%)" stroke-width="1.5"></path><path d="M1451.22 669.05L1451.22 669.05" stroke="hsl(264.9, 68.7%, 45.6%)" stroke-width="1.5"></path><path d="M1451.22 669.05L1590.27 676.53" stroke="hsl(264.9, 68.7%, 45.6%)" stroke-width="1.5"></path><path d="M1451.22 669.05L1545.15 536.73" stroke="hsl(264.9, 68.7%, 45.6%)" stroke-width="1.5"></path><path d="M1451.22 669.05L1280.41 527.58" stroke="hsl(264.9, 68.7%, 45.6%)" stroke-width="1.5"></path><path d="M1602.88 -108.49L1602.88 -108.49" stroke="hsl(264.9, 68.7%, 45.6%)" stroke-width="1.5"></path><path d="M1602.88 -108.49L1426.36 -87.41" stroke="hsl(264.9, 68.7%, 45.6%)" stroke-width="1.5"></path><path d="M1602.88 -108.49L1602.88 100.66" stroke="hsl(264.9, 68.7%, 45.6%)" stroke-width="1.5"></path><path d="M1602.88 -108.49L1396.52 59.83" stroke="hsl(264.9, 68.7%, 45.6%)" stroke-width="1.5"></path><path d="M1602.88 100.66L1602.88 100.66" stroke="hsl(264.9, 68.7%, 45.6%)" stroke-width="1.5"></path><path d="M1602.88 100.66L1598.33 204.57" stroke="hsl(264.9, 68.7%, 45.6%)" stroke-width="1.5"></path><path d="M1602.88 100.66L1396.52 59.83" stroke="hsl(264.9, 68.7%, 45.6%)" stroke-width="1.5"></path><path d="M1598.33 204.57L1598.33 204.57" stroke="hsl(264.9, 68.7%, 45.6%)" stroke-width="1.5"></path><path d="M1558.95 365.89L1558.95 365.89" stroke="hsl(264.9, 68.7%, 45.6%)" stroke-width="1.5"></path><path d="M1558.95 365.89L1598.33 204.57" stroke="hsl(264.9, 68.7%, 45.6%)" stroke-width="1.5"></path><path d="M1545.15 536.73L1545.15 536.73" stroke="hsl(264.9, 68.7%, 45.6%)" stroke-width="1.5"></path><path d="M1545.15 536.73L1590.27 676.53" stroke="hsl(264.9, 68.7%, 45.6%)" stroke-width="1.5"></path><path d="M1590.27 676.53L1590.27 676.53" stroke="hsl(264.9, 68.7%, 45.6%)" stroke-width="1.5"></path><circle r="25" cx="54.77" cy="554.7" fill="url(#SvgjsRadialGradient1009)"></circle><circle r="25" cx="376.16" cy="644.08" fill="url(#SvgjsRadialGradient1009)"></circle><circle r="25" cx="697.57" cy="702.4" fill="url(#SvgjsRadialGradient1009)"></circle><circle r="25" cx="1276.09" cy="-100.06" fill="url(#SvgjsRadialGradient1009)"></circle><circle r="25" cx="1248.96" cy="215.17" fill="url(#SvgjsRadialGradient1009)"></circle><circle r="25" cx="1295.96" cy="387.96" fill="url(#SvgjsRadialGradient1009)"></circle><circle r="5" cx="-66.6" cy="513.31" fill="#a78ecb"></circle><circle r="5" cx="-100.17" cy="671.56" fill="#a78ecb"></circle><circle r="5" cx="66.14" cy="653.7" fill="#a78ecb"></circle><circle r="5" cx="233.65" cy="664.68" fill="#a78ecb"></circle><circle r="5" cx="551.98" cy="536.08" fill="#a78ecb"></circle><circle r="5" cx="535.48" cy="707.11" fill="#a78ecb"></circle><circle r="5" cx="640.19" cy="511.67" fill="#a78ecb"></circle><circle r="5" cx="791.3" cy="399.29" fill="#a78ecb"></circle><circle r="5" cx="797.5" cy="525.14" fill="#a78ecb"></circle><circle r="5" cx="848.53" cy="695.45" fill="#a78ecb"></circle><circle r="5" cx="996.33" cy="507.05" fill="#a78ecb"></circle><circle r="5" cx="956.19" cy="666.9" fill="#a78ecb"></circle><circle r="5" cx="1158.36" cy="216.69" fill="#a78ecb"></circle><circle r="5" cx="1140.68" cy="342.33" fill="#a78ecb"></circle><circle r="5" cx="1148.96" cy="510.21" fill="#a78ecb"></circle><circle r="5" cx="1299.28" cy="44.96" fill="#a78ecb"></circle><circle r="5" cx="1280.41" cy="527.58" fill="#a78ecb"></circle><circle r="5" cx="1297.84" cy="663.08" fill="#a78ecb"></circle><circle r="5" cx="1426.36" cy="-87.41" fill="#a78ecb"></circle><circle r="5" cx="1396.52" cy="59.83" fill="#a78ecb"></circle><circle r="5" cx="1389.82" cy="211.37" fill="#a78ecb"></circle><circle r="5" cx="1453.71" cy="376.4" fill="#a78ecb"></circle><circle r="5" cx="1436.04" cy="527.75" fill="#a78ecb"></circle><circle r="5" cx="1451.22" cy="669.05" fill="#a78ecb"></circle><circle r="5" cx="1602.88" cy="-108.49" fill="#a78ecb"></circle><circle r="5" cx="1602.88" cy="100.66" fill="#a78ecb"></circle><circle r="5" cx="1598.33" cy="204.57" fill="#a78ecb"></circle><circle r="5" cx="1558.95" cy="365.89" fill="#a78ecb"></circle><circle r="5" cx="1545.15" cy="536.73" fill="#a78ecb"></circle><circle r="5" cx="1590.27" cy="676.53" fill="#a78ecb"></circle></g><defs><mask id="SvgjsMask1008"><rect width="1440" height="560" fill="#ffffff"></rect></mask><radialGradient id="SvgjsRadialGradient1009"><stop stop-color="#ffffff" offset="0.1"></stop><stop stop-color="rgba(79, 28, 151, 1)" offset="0.2"></stop><stop stop-color="rgba(79, 28, 151, 0)" offset="1"></stop></radialGradient></defs></svg>